<?xml version="1.0" encoding="utf-8" standalone="yes"?><svg width="13.5cm" xmlns:xlink="http://www.w3.org/1999/xlink" height="2.7cm" version="1.1" xmlns="http://www.w3.org/2000/svg" viewBox="0 0 1350 270"><defs><filter id="ShiftBGAndBlur" x="0" y="0" width="1200" height="400" filterUnits="userSpaceOnUse"><feOffset in="BackgroundImage" dy="125" dx="0"></feOffset><feGaussianBlur stdDeviation="8"></feGaussianBlur></filter><filter filterUnits="userSpaceOnUse" width="1200" height="400" id="ShiftBGAndBlur_WithSourceGraphic" y="0" x="0"><feOffset in="BackgroundImage" dy="125" dx="0"></feOffset><feGaussianBlur result="blur" stdDeviation="8"></feGaussianBlur><feMerge><feMergeNode in="blur"></feMergeNode><feMergeNode in="SourceGraphic"></feMergeNode></feMerge></filter></defs><g transform="translate(0,0)"><rect x="25" y="25" width="100" fill="rgb(255,0,0)" height="100"></rect><g opacity="0.5"><circle cx="125" cy="75" r="45" fill="rgb(0,128,0)"></circle><polygon points="160 25 160 125 240 75" fill="rgb(0,0,255)"></polygon></g><rect y="5" x="5" width="260" height="260" stroke="rgb(0,0,255)" fill="none"></rect></g><g transform="translate(270,0)" enable-background="new"><rect height="100" x="25" width="100" y="25" fill="rgb(255,0,0)"></rect><g opacity="0.5"><circle r="45" cy="75" fill="rgb(0,128,0)" cx="125"></circle><polygon fill="rgb(0,0,255)" points="160 25 160 125 240 75"></polygon></g><g filter="url(#ShiftBGAndBlur)"></g><rect width="260" y="5" fill="none" height="260" stroke="rgb(0,0,255)" x="5"></rect></g><g enable-background="new" transform="translate(540,0)"><rect width="100" height="100" y="25" x="25" fill="rgb(255,0,0)"></rect><g filter="url(#ShiftBGAndBlur)" opacity="0.5"><circle cx="125" cy="75" r="45" fill="rgb(0,128,0)"></circle><polygon fill="rgb(0,0,255)" points="160 25 160 125 240 75"></polygon></g><rect y="5" stroke="rgb(0,0,255)" x="5" width="260" fill="none" height="260"></rect></g><g enable-background="new" transform="translate(810,0)"><rect y="25" fill="rgb(255,0,0)" height="100" x="25" width="100"></rect><g opacity="0.5"><circle r="45" fill="rgb(0,128,0)" cx="125" cy="75"></circle><polygon points="160 25 160 125 240 75" filter="url(#ShiftBGAndBlur)" fill="rgb(0,0,255)"></polygon></g><rect y="5" height="260" stroke="rgb(0,0,255)" width="260" fill="none" x="5"></rect></g><g enable-background="new" transform="translate(1080,0)"><rect y="25" x="25" height="100" fill="rgb(255,0,0)" width="100"></rect><g opacity="0.5"><circle fill="rgb(0,128,0)" cy="75" r="45" cx="125"></circle><polygon points="160 25 160 125 240 75" filter="url(#ShiftBGAndBlur_WithSourceGraphic)" fill="rgb(0,0,255)"></polygon></g><rect width="260" height="260" y="5" fill="none" x="5" stroke="rgb(0,0,255)"></rect></g></svg>